<svg width="480" height="320" viewBox="0 0 480 320" fill="none" xmlns="http://www.w3.org/2000/svg">
<g clip-path="url(#clip0_6_10)">
<g opacity="0.15" filter="url(#filter0_d_6_10)">
<rect x="141.824" y="35.4935" width="260" height="100" rx="20" transform="rotate(2 141.824 35.4935)" fill="#3B82F6"/>
<rect x="142.306" y="36.0107" width="259" height="99" rx="19.5" transform="rotate(2 142.306 36.0107)" stroke="white" stroke-opacity="0.1"/>
</g>
<g opacity="0.15" filter="url(#filter1_d_6_10)">
<rect x="210.692" y="150.33" width="260" height="100" rx="20" transform="rotate(-4 210.692 150.33)" fill="#3B82F6"/>
<rect x="211.226" y="150.794" width="259" height="99" rx="19.5" transform="rotate(-4 211.226 150.794)" stroke="white" stroke-opacity="0.1"/>
</g>
<g opacity="0.15" filter="url(#filter2_d_6_10)">
<rect x="87.6676" y="182.193" width="260" height="100" rx="20" transform="rotate(4 87.6676 182.193)" fill="#3B82F6"/>
<rect x="88.1315" y="182.727" width="259" height="99" rx="19.5" transform="rotate(4 88.1315 182.727)" stroke="white" stroke-opacity="0.1"/>
</g>
<path d="M205.476 94.751L205.933 81.6681L210.941 81.843C211.886 81.876 212.667 82.0525 213.283 82.3725C213.903 82.6883 214.359 83.1072 214.652 83.6291C214.949 84.1512 215.087 84.7359 215.064 85.3832C215.046 85.9156 214.927 86.3677 214.71 86.7396C214.492 87.1072 214.207 87.4021 213.854 87.6243C213.501 87.8465 213.109 88.0013 212.68 88.0886L212.676 88.2164C213.139 88.2581 213.579 88.4163 213.996 88.691C214.417 88.9615 214.756 89.3358 215.012 89.8138C215.268 90.2918 215.385 90.8629 215.361 91.5273C215.338 92.2044 215.152 92.8077 214.806 93.3371C214.459 93.8623 213.95 94.2688 213.279 94.5566C212.608 94.8445 211.772 94.9709 210.772 94.936L205.476 94.751ZM207.915 92.8535L210.464 92.9425C211.324 92.9725 211.949 92.8302 212.34 92.5155C212.735 92.1967 212.941 91.7775 212.959 91.2579C212.973 90.8704 212.889 90.5178 212.709 90.2003C212.528 89.8784 212.264 89.6219 211.917 89.4307C211.57 89.2352 211.151 89.1289 210.661 89.1118L208.049 89.0206L207.915 92.8535ZM208.108 87.3149L210.453 87.3968C210.862 87.4111 211.233 87.3494 211.566 87.2118C211.899 87.0699 212.164 86.8639 212.361 86.5936C212.563 86.3192 212.67 85.9904 212.683 85.6071C212.701 85.1003 212.537 84.6767 212.191 84.3363C211.849 83.996 211.328 83.8137 210.63 83.7893L208.234 83.7056L208.108 87.3149ZM217.196 95.1603L217.539 85.3481L219.781 85.4264L219.724 87.0618L219.826 87.0654C220.025 86.5052 220.347 86.0794 220.792 85.7879C221.242 85.4923 221.747 85.3544 222.31 85.374C222.437 85.3785 222.58 85.3898 222.737 85.4081C222.898 85.4223 223.032 85.4419 223.138 85.4669L223.063 87.5941C222.967 87.5566 222.812 87.5214 222.6 87.4884C222.393 87.4513 222.191 87.4293 221.995 87.4225C221.573 87.4078 221.191 87.4861 220.848 87.6575C220.51 87.8248 220.239 88.0647 220.036 88.3775C219.834 88.6902 219.725 89.0552 219.71 89.4726L219.509 95.2411L217.196 95.1603ZM224.201 95.4049L224.252 93.9357L229.533 87.7689L229.536 87.6859L224.643 87.515L224.71 85.5985L232.433 85.8682L232.378 87.4461L227.344 93.5127L227.341 93.5958L232.323 93.7698L232.256 95.6862L224.201 95.4049ZM227.367 81.6619L228.607 83.3425L229.961 81.7525L231.986 81.8232L231.983 81.9126L229.465 84.5877L227.657 84.5246L225.339 81.6806L225.342 81.5912L227.367 81.6619ZM238.486 96.0957C237.502 96.0613 236.66 95.8272 235.959 95.3934C235.262 94.9554 234.735 94.3529 234.378 93.5857C234.021 92.8143 233.861 91.9154 233.897 90.889C233.932 89.8797 234.154 89.0005 234.564 88.2516C234.979 87.4985 235.54 86.9212 236.249 86.5196C236.959 86.1137 237.782 85.9271 238.719 85.9598C239.323 85.9809 239.891 86.0988 240.42 86.3134C240.955 86.524 241.421 86.8388 241.82 87.2578C242.223 87.6769 242.533 88.2037 242.75 88.838C242.967 89.4682 243.06 90.2133 243.03 91.0736L243.005 91.7827L234.963 91.5018L235.017 89.9431L240.843 90.1466C240.854 89.7035 240.772 89.3062 240.597 88.9547C240.422 88.599 240.169 88.3151 239.84 88.1032C239.515 87.8915 239.131 87.7778 238.688 87.7624C238.215 87.7459 237.796 87.8464 237.43 88.0638C237.064 88.2771 236.775 88.5654 236.562 88.929C236.353 89.2884 236.239 89.6873 236.219 90.1258L236.172 91.4865C236.152 92.0572 236.239 92.5506 236.434 92.9667C236.628 93.3786 236.909 93.6997 237.276 93.93C237.644 94.156 238.079 94.2778 238.581 94.2953C238.917 94.3071 239.224 94.2708 239.499 94.1867C239.775 94.0982 240.017 93.9638 240.223 93.7834C240.43 93.603 240.589 93.3762 240.701 93.103L242.852 93.4211C242.696 93.987 242.419 94.4762 242.021 94.8887C241.627 95.2971 241.13 95.6081 240.53 95.8216C239.93 96.0309 239.249 96.1223 238.486 96.0957ZM249.146 99.9601L249.617 86.4683L251.891 86.5477L251.835 88.1703L251.969 88.175C252.096 87.9407 252.273 87.6932 252.5 87.4324C252.727 87.1675 253.029 86.9456 253.406 86.7669C253.783 86.5839 254.259 86.5025 254.834 86.5226C255.592 86.5491 256.269 86.7667 256.865 87.1755C257.465 87.5802 257.93 88.1657 258.262 88.932C258.597 89.6942 258.746 90.6204 258.708 91.7107C258.671 92.7881 258.462 93.6976 258.082 94.439C257.702 95.1805 257.201 95.7386 256.578 96.1134C255.955 96.4882 255.258 96.6622 254.488 96.6352C253.925 96.6156 253.462 96.5056 253.098 96.3053C252.734 96.105 252.444 95.8689 252.228 95.5969C252.016 95.3209 251.852 95.0615 251.737 94.8187L251.641 94.8153L251.459 100.041L249.146 99.9601ZM251.714 91.4536C251.691 92.0882 251.761 92.6471 251.924 93.1303C252.09 93.6137 252.339 93.9954 252.67 94.2756C253.006 94.5517 253.419 94.6983 253.909 94.7154C254.42 94.7333 254.852 94.6119 255.207 94.3514C255.562 94.0867 255.835 93.7188 256.026 93.2479C256.221 92.773 256.33 92.2288 256.351 91.6156C256.373 91.0066 256.304 90.4626 256.146 89.9838C255.988 89.505 255.741 89.1254 255.406 88.8451C255.07 88.5647 254.645 88.4155 254.129 88.3976C253.635 88.3803 253.211 88.4955 252.857 88.7433C252.503 88.991 252.229 89.346 252.033 89.8082C251.842 90.2706 251.736 90.819 251.714 91.4536ZM263.334 96.9698C262.713 96.9481 262.156 96.8178 261.666 96.5789C261.18 96.3359 260.799 95.9901 260.525 95.5413C260.255 95.0927 260.131 94.5469 260.154 93.9038C260.173 93.3501 260.291 92.8959 260.508 92.541C260.725 92.1862 261.015 91.9063 261.376 91.7015C261.737 91.4966 262.141 91.3466 262.587 91.2513C263.039 91.1519 263.504 91.085 263.982 91.0506C264.559 91.011 265.028 90.9741 265.387 90.9397C265.746 90.9011 266.009 90.8335 266.174 90.737C266.344 90.6363 266.433 90.4752 266.441 90.2538L266.442 90.2154C266.459 89.7342 266.329 89.3566 266.053 89.0826C265.777 88.8086 265.37 88.6622 264.834 88.6434C264.267 88.6237 263.814 88.7315 263.473 88.9669C263.136 89.2024 262.905 89.4864 262.778 89.8189L260.63 89.4368C260.821 88.8466 261.119 88.3581 261.525 87.9715C261.931 87.5806 262.421 87.2949 262.994 87.1145C263.568 86.9299 264.197 86.8495 264.883 86.8735C265.356 86.89 265.824 86.9618 266.289 87.0889C266.753 87.216 267.175 87.414 267.554 87.6831C267.932 87.9479 268.231 88.3016 268.45 88.7442C268.674 89.1869 268.774 89.734 268.751 90.3856L268.522 96.9527L266.299 96.875L266.346 95.5271L266.269 95.5244C266.119 95.7921 265.912 96.0407 265.648 96.2703C265.389 96.4957 265.065 96.6742 264.677 96.8056C264.293 96.9329 263.845 96.9876 263.334 96.9698ZM263.994 95.2915C264.458 95.3077 264.864 95.2302 265.211 95.059C265.558 94.8835 265.829 94.6456 266.023 94.3454C266.221 94.0453 266.326 93.7142 266.339 93.3522L266.379 92.196C266.305 92.2531 266.179 92.3041 266.003 92.3491C265.831 92.3943 265.638 92.4323 265.423 92.4632C265.209 92.4941 264.997 92.5208 264.787 92.5433C264.578 92.5659 264.396 92.5851 264.242 92.601C263.895 92.6358 263.584 92.7017 263.307 92.7987C263.031 92.8956 262.811 93.0372 262.646 93.2233C262.482 93.4052 262.395 93.6452 262.385 93.9433C262.37 94.3692 262.514 94.6961 262.817 94.9242C263.121 95.1523 263.513 95.2747 263.994 95.2915ZM270.847 97.0339L271.19 87.2217L273.432 87.3L273.375 88.9353L273.477 88.9389C273.676 88.3787 273.998 87.9529 274.443 87.6614C274.892 87.3659 275.398 87.2279 275.96 87.2475C276.088 87.252 276.231 87.2634 276.388 87.2816C276.549 87.2958 276.683 87.3154 276.789 87.3404L276.714 89.4677C276.618 89.4302 276.463 89.3949 276.251 89.3619C276.043 89.3248 275.842 89.3029 275.646 89.296C275.224 89.2813 274.842 89.3596 274.499 89.531C274.161 89.6983 273.89 89.9383 273.687 90.251C273.484 90.5637 273.376 90.9287 273.361 91.3461L273.16 97.1146L270.847 97.0339ZM280.195 94.2774L280.286 91.4856L280.657 91.4985L284.321 87.6802L287.023 87.7746L282.517 92.4525L282.038 92.4358L280.195 94.2774ZM277.98 97.2829L278.437 84.2L280.749 84.2807L280.292 97.3637L277.98 97.2829ZM284.138 97.498L281.1 92.9211L282.715 91.3466L286.904 97.5946L284.138 97.498ZM288.221 97.6406L288.564 87.8284L290.877 87.9091L290.534 97.7213L288.221 97.6406ZM289.775 86.4764C289.409 86.4636 289.098 86.3312 288.843 86.0792C288.587 85.823 288.466 85.5224 288.478 85.1774C288.49 84.8282 288.632 84.5368 288.905 84.3033C289.177 84.0655 289.497 83.953 289.863 83.9658C290.234 83.9787 290.544 84.1133 290.796 84.3693C291.051 84.6213 291.173 84.9219 291.161 85.2711C291.149 85.6161 291.006 85.9075 290.734 86.1452C290.465 86.3789 290.146 86.4893 289.775 86.4764ZM292.912 97.8044L293.255 87.9922L295.497 88.0705L295.44 89.7058L295.542 89.7094C295.741 89.1492 296.062 88.7234 296.508 88.432C296.957 88.1364 297.463 87.9984 298.025 88.018C298.153 88.0225 298.295 88.0339 298.452 88.0522C298.614 88.0663 298.748 88.0859 298.853 88.1109L298.779 90.2382C298.682 90.2007 298.528 90.1654 298.316 90.1325C298.108 90.0954 297.906 90.0734 297.71 90.0666C297.289 90.0518 296.907 90.1302 296.564 90.3015C296.225 90.4688 295.955 90.7088 295.752 91.0215C295.549 91.3342 295.44 91.6993 295.426 92.1166L295.224 97.8851L292.912 97.8044ZM302.685 98.3439C302.064 98.3222 301.507 98.1919 301.017 97.9531C300.531 97.7101 300.15 97.3642 299.876 96.9155C299.606 96.4669 299.482 95.921 299.505 95.2779C299.524 94.7243 299.642 94.2701 299.859 93.9152C300.077 93.5603 300.366 93.2805 300.727 93.0756C301.088 92.8708 301.492 92.7207 301.938 92.6255C302.39 92.5261 302.855 92.4592 303.333 92.4247C303.91 92.3852 304.379 92.3482 304.738 92.3139C305.097 92.2753 305.36 92.2077 305.525 92.1111C305.695 92.0105 305.784 91.8494 305.792 91.6279L305.793 91.5896C305.81 91.1084 305.68 90.7307 305.404 90.4567C305.128 90.1827 304.722 90.0364 304.185 90.0176C303.618 89.9978 303.165 90.1057 302.824 90.3411C302.488 90.5766 302.256 90.8606 302.129 91.193L299.981 90.811C300.172 90.2207 300.47 89.7323 300.876 89.3456C301.282 88.9547 301.772 88.6691 302.345 88.4887C302.919 88.3041 303.548 88.2237 304.234 88.2477C304.707 88.2642 305.175 88.336 305.64 88.463C306.104 88.5901 306.526 88.7882 306.905 89.0573C307.284 89.3221 307.582 89.6758 307.801 90.1183C308.025 90.561 308.125 91.1082 308.102 91.7598L307.873 98.3268L305.65 98.2492L305.697 96.9013L305.62 96.8986C305.47 97.1663 305.263 97.4149 304.999 97.6444C304.74 97.8699 304.416 98.0483 304.028 98.1797C303.644 98.3071 303.196 98.3618 302.685 98.3439ZM303.345 96.6657C303.809 96.6819 304.215 96.6044 304.562 96.4331C304.909 96.2576 305.18 96.0198 305.374 95.7195C305.572 95.4195 305.677 95.0884 305.69 94.7264L305.73 93.5702C305.656 93.6273 305.53 93.6783 305.354 93.7233C305.182 93.7685 304.989 93.8065 304.774 93.8374C304.56 93.8683 304.348 93.895 304.138 93.9175C303.929 93.94 303.747 93.9593 303.593 93.9752C303.246 94.01 302.935 94.0759 302.658 94.1728C302.382 94.2698 302.162 94.4113 301.997 94.5975C301.833 94.7794 301.746 95.0194 301.736 95.3175C301.721 95.7433 301.865 96.0703 302.168 96.2984C302.472 96.5264 302.864 96.6488 303.345 96.6657ZM312.712 92.7394L312.511 98.4888L310.198 98.408L310.541 88.5958L312.751 88.673L312.693 90.3403L312.808 90.3443C313.053 89.8028 313.428 89.3789 313.933 89.0725C314.443 88.7662 315.064 88.6258 315.796 88.6514C316.474 88.6751 317.058 88.8405 317.551 89.1476C318.047 89.4549 318.425 89.8881 318.682 90.4471C318.944 91.0063 319.059 91.6777 319.028 92.4611L318.81 98.7087L316.497 98.628L316.703 92.7381C316.726 92.0822 316.573 91.5631 316.245 91.1807C315.922 90.7984 315.462 90.5969 314.866 90.5761C314.461 90.562 314.098 90.6388 313.777 90.8067C313.46 90.9704 313.206 91.2153 313.016 91.5412C312.829 91.8673 312.728 92.2667 312.712 92.7394ZM321.503 88.9786L323.816 89.0594L323.453 99.4337C323.429 100.141 323.274 100.719 322.99 101.17C322.705 101.621 322.306 101.95 321.791 102.158C321.276 102.366 320.657 102.457 319.933 102.432C319.848 102.429 319.769 102.424 319.697 102.417C319.625 102.415 319.546 102.41 319.461 102.403L319.527 100.518C319.59 100.525 319.648 100.529 319.699 100.531C319.75 100.537 319.803 100.541 319.858 100.543C320.301 100.558 320.622 100.461 320.822 100.25C321.021 100.044 321.127 99.7341 321.142 99.321L321.503 88.9786ZM322.702 87.6262C322.331 87.6132 322.018 87.4808 321.762 87.2288C321.511 86.9727 321.392 86.6722 321.404 86.3272C321.416 85.978 321.556 85.6866 321.824 85.4529C322.097 85.2151 322.419 85.1027 322.789 85.1156C323.155 85.1284 323.464 85.2628 323.715 85.5189C323.971 85.7709 324.093 86.0715 324.08 86.4207C324.068 86.7657 323.926 87.057 323.653 87.2948C323.385 87.5285 323.068 87.6389 322.702 87.6262ZM330.188 99.298C329.204 99.2636 328.362 99.0295 327.661 98.5957C326.964 98.1577 326.437 97.5552 326.08 96.788C325.723 96.0166 325.563 95.1177 325.599 94.0913C325.634 93.082 325.856 92.2028 326.266 91.4539C326.681 90.7008 327.242 90.1235 327.951 89.7219C328.661 89.316 329.484 89.1294 330.421 89.1621C331.025 89.1832 331.593 89.3011 332.122 89.5157C332.656 89.7263 333.123 90.0411 333.522 90.4601C333.925 90.8792 334.235 91.406 334.452 92.0403C334.669 92.6705 334.762 93.4156 334.732 94.2759L334.707 94.985L326.664 94.7041L326.719 93.1454L332.545 93.3489C332.556 92.9058 332.474 92.5085 332.299 92.157C332.124 91.8013 331.871 91.5174 331.542 91.3055C331.217 91.0938 330.832 90.9802 330.39 90.9647C329.917 90.9482 329.498 91.0487 329.132 91.2661C328.766 91.4794 328.477 91.7677 328.264 92.1313C328.055 92.4907 327.941 92.8896 327.921 93.3281L327.874 94.6888C327.854 95.2595 327.941 95.7529 328.136 96.169C328.33 96.5809 328.611 96.902 328.978 97.1323C329.345 97.3583 329.78 97.4801 330.283 97.4976C330.619 97.5094 330.926 97.4731 331.201 97.389C331.477 97.3005 331.719 97.1661 331.925 96.9857C332.132 96.8053 332.291 96.5785 332.403 96.3053L334.554 96.6234C334.398 97.1893 334.121 97.6785 333.722 98.091C333.329 98.4994 332.832 98.8104 332.232 99.0239C331.632 99.2332 330.95 99.3246 330.188 99.298Z" fill="#1F2937"/>
<path d="M259.632 200.423L258.719 187.364L267.212 186.77L267.351 188.753L261.223 189.181L261.471 192.727L267.159 192.329L267.298 194.312L261.61 194.71L261.859 198.274L268.038 197.842L268.177 199.825L259.632 200.423ZM272.326 196.447L272.125 193.661L272.495 193.635L275.74 189.454L278.437 189.266L274.444 194.389L273.966 194.423L272.326 196.447ZM270.437 199.667L269.524 186.608L271.832 186.447L272.745 199.506L270.437 199.667ZM276.584 199.237L273.084 195.003L274.526 193.268L279.345 199.044L276.584 199.237ZM284.543 198.873C283.586 198.94 282.742 198.788 282.012 198.416C281.281 198.044 280.695 197.493 280.256 196.764C279.82 196.034 279.567 195.163 279.496 194.151C279.426 193.139 279.555 192.24 279.884 191.452C280.218 190.664 280.721 190.035 281.393 189.565C282.065 189.095 282.879 188.827 283.835 188.76C284.792 188.693 285.635 188.846 286.366 189.217C287.097 189.589 287.68 190.142 288.116 190.876C288.556 191.61 288.812 192.483 288.882 193.495C288.953 194.507 288.822 195.404 288.488 196.188C288.158 196.971 287.657 197.598 286.985 198.068C286.313 198.538 285.499 198.806 284.543 198.873ZM284.426 197.023C284.945 196.987 285.368 196.814 285.697 196.505C286.025 196.191 286.258 195.787 286.394 195.29C286.534 194.793 286.583 194.247 286.542 193.652C286.5 193.053 286.375 192.517 286.167 192.044C285.962 191.567 285.676 191.197 285.307 190.932C284.938 190.667 284.495 190.553 283.976 190.589C283.445 190.626 283.013 190.802 282.68 191.116C282.352 191.429 282.117 191.836 281.977 192.337C281.841 192.834 281.794 193.382 281.836 193.981C281.878 194.576 282 195.11 282.204 195.583C282.412 196.055 282.701 196.424 283.07 196.689C283.443 196.949 283.895 197.06 284.426 197.023ZM292.577 184.996L293.49 198.055L291.181 198.217L290.268 185.158L292.577 184.996ZM300.149 197.782C299.192 197.849 298.349 197.696 297.618 197.324C296.887 196.953 296.302 196.402 295.862 195.672C295.427 194.942 295.173 194.072 295.103 193.06C295.032 192.048 295.161 191.148 295.491 190.361C295.824 189.573 296.327 188.944 296.999 188.474C297.671 188.004 298.485 187.736 299.442 187.669C300.398 187.602 301.242 187.754 301.973 188.126C302.704 188.498 303.287 189.051 303.723 189.785C304.163 190.519 304.418 191.392 304.489 192.404C304.56 193.415 304.428 194.313 304.094 195.097C303.764 195.88 303.264 196.507 302.592 196.977C301.92 197.447 301.105 197.715 300.149 197.782ZM300.032 195.932C300.551 195.896 300.975 195.723 301.303 195.414C301.632 195.1 301.864 194.695 302 194.199C302.14 193.702 302.19 193.156 302.148 192.561C302.106 191.961 301.981 191.425 301.773 190.953C301.569 190.476 301.282 190.105 300.914 189.841C300.545 189.576 300.101 189.462 299.582 189.498C299.051 189.535 298.619 189.711 298.286 190.024C297.958 190.338 297.724 190.745 297.584 191.246C297.448 191.743 297.401 192.29 297.442 192.89C297.484 193.485 297.607 194.019 297.811 194.492C298.019 194.964 298.307 195.333 298.676 195.597C299.049 195.857 299.501 195.969 300.032 195.932ZM314.025 189.379L311.937 189.755C311.862 189.547 311.744 189.354 311.582 189.178C311.425 189.001 311.219 188.864 310.964 188.766C310.71 188.669 310.404 188.632 310.047 188.657C309.566 188.691 309.17 188.823 308.857 189.054C308.548 189.285 308.408 189.566 308.435 189.898C308.451 190.183 308.571 190.407 308.796 190.571C309.026 190.734 309.393 190.856 309.898 190.936L311.594 191.176C312.535 191.311 313.246 191.58 313.726 191.982C314.212 192.384 314.481 192.935 314.534 193.636C314.573 194.253 314.43 194.81 314.106 195.306C313.786 195.799 313.321 196.199 312.71 196.506C312.099 196.814 311.386 196.996 310.57 197.053C309.371 197.137 308.388 196.954 307.622 196.503C306.856 196.048 306.371 195.375 306.167 194.484L308.403 194.11C308.536 194.545 308.776 194.863 309.124 195.065C309.471 195.268 309.91 195.35 310.442 195.313C310.99 195.274 311.422 195.131 311.738 194.883C312.058 194.634 312.206 194.344 312.183 194.012C312.164 193.731 312.039 193.507 311.809 193.34C311.584 193.172 311.243 193.055 310.785 192.988L309.09 192.755C308.137 192.625 307.419 192.344 306.936 191.912C306.453 191.476 306.188 190.901 306.142 190.186C306.096 189.583 306.223 189.049 306.524 188.583C306.828 188.113 307.27 187.737 307.848 187.453C308.43 187.164 309.112 186.993 309.894 186.938C311.042 186.858 311.963 187.039 312.656 187.482C313.353 187.924 313.809 188.556 314.025 189.379ZM308.373 183.136L309.781 184.677L310.961 182.955L312.983 182.813L312.989 182.902L310.771 185.826L308.967 185.952L306.358 183.366L306.351 183.277L308.373 183.136ZM318.532 193.216L318.331 190.43L318.701 190.404L321.945 186.223L324.643 186.035L320.65 191.158L320.172 191.192L318.532 193.216ZM316.643 196.436L315.729 183.377L318.038 183.216L318.951 196.275L316.643 196.436ZM322.79 196.006L319.29 191.772L320.732 190.037L325.551 195.813L322.79 196.006ZM326.866 195.721L326.181 185.927L328.489 185.766L329.174 195.56L326.866 195.721ZM327.244 184.456C326.879 184.481 326.556 184.382 326.275 184.158C325.994 183.93 325.842 183.644 325.818 183.3C325.793 182.951 325.904 182.647 326.151 182.386C326.397 182.121 326.703 181.976 327.069 181.95C327.439 181.924 327.762 182.025 328.039 182.254C328.319 182.478 328.471 182.764 328.496 183.112C328.52 183.457 328.409 183.761 328.162 184.026C327.92 184.287 327.614 184.43 327.244 184.456ZM336.258 198.755L335.317 185.288L337.587 185.13L337.7 186.749L337.834 186.74C337.936 186.493 338.087 186.229 338.285 185.946C338.482 185.659 338.76 185.406 339.116 185.189C339.472 184.968 339.937 184.837 340.511 184.797C341.268 184.744 341.964 184.89 342.598 185.234C343.237 185.574 343.762 186.107 344.171 186.835C344.585 187.558 344.83 188.463 344.906 189.552C344.981 190.627 344.869 191.553 344.568 192.331C344.268 193.108 343.828 193.715 343.248 194.153C342.668 194.591 341.993 194.837 341.223 194.89C340.662 194.93 340.19 194.869 339.807 194.708C339.424 194.546 339.111 194.342 338.867 194.094C338.627 193.842 338.438 193.601 338.298 193.371L338.202 193.378L338.567 198.594L336.258 198.755ZM337.923 190.027C337.967 190.661 338.095 191.209 338.307 191.673C338.523 192.136 338.811 192.49 339.169 192.734C339.532 192.973 339.958 193.076 340.447 193.042C340.957 193.006 341.375 192.84 341.7 192.544C342.025 192.244 342.258 191.849 342.399 191.361C342.544 190.868 342.595 190.316 342.552 189.703C342.51 189.096 342.385 188.562 342.177 188.102C341.97 187.642 341.685 187.291 341.322 187.047C340.959 186.803 340.52 186.699 340.006 186.735C339.513 186.77 339.103 186.929 338.777 187.212C338.451 187.496 338.215 187.877 338.069 188.357C337.927 188.837 337.879 189.394 337.923 190.027ZM347.224 194.298L346.539 184.504L348.777 184.347L348.892 185.979L348.994 185.972C349.133 185.394 349.408 184.937 349.82 184.601C350.237 184.26 350.725 184.07 351.286 184.031C351.414 184.022 351.557 184.018 351.715 184.02C351.877 184.017 352.012 184.023 352.12 184.036L352.268 186.16C352.168 186.133 352.011 186.114 351.797 186.103C351.586 186.088 351.383 186.087 351.188 186.101C350.767 186.13 350.395 186.248 350.072 186.454C349.753 186.656 349.509 186.923 349.34 187.255C349.171 187.587 349.101 187.962 349.13 188.378L349.533 194.136L347.224 194.298ZM354.344 193.8L353.659 184.006L355.967 183.844L356.652 193.639L354.344 193.8ZM354.722 182.534C354.356 182.56 354.033 182.461 353.753 182.237C353.472 182.009 353.32 181.723 353.296 181.378C353.271 181.03 353.382 180.725 353.629 180.464C353.875 180.199 354.181 180.054 354.547 180.029C354.917 180.003 355.24 180.104 355.516 180.332C355.797 180.556 355.949 180.842 355.974 181.191C355.998 181.535 355.887 181.84 355.64 182.105C355.398 182.365 355.092 182.509 354.722 182.534ZM360.932 187.572L361.334 193.311L359.025 193.473L358.112 180.414L360.37 180.256L360.714 185.185L360.829 185.177C361.02 184.608 361.344 184.147 361.802 183.795C362.265 183.438 362.87 183.233 363.618 183.181C364.298 183.134 364.901 183.235 365.427 183.484C365.952 183.733 366.373 184.123 366.687 184.652C367.006 185.18 367.193 185.84 367.249 186.631L367.685 192.867L365.376 193.028L364.965 187.149C364.919 186.49 364.713 185.99 364.348 185.648C363.986 185.302 363.501 185.15 362.893 185.193C362.485 185.221 362.126 185.336 361.815 185.537C361.509 185.734 361.276 186.004 361.116 186.348C360.961 186.693 360.899 187.1 360.932 187.572ZM377.751 182.321L374.948 192.359L372.397 192.538L368.224 182.987L370.685 182.815L373.445 189.933L373.547 189.926L375.296 182.493L377.751 182.321ZM382.584 192.024C381.964 192.067 381.397 191.996 380.884 191.81C380.375 191.619 379.961 191.314 379.641 190.897C379.326 190.479 379.146 189.949 379.101 189.307C379.062 188.754 379.132 188.29 379.311 187.915C379.49 187.539 379.748 187.231 380.086 186.989C380.423 186.748 380.81 186.556 381.244 186.415C381.682 186.269 382.138 186.154 382.61 186.069C383.18 185.97 383.642 185.884 383.995 185.812C384.349 185.736 384.603 185.642 384.757 185.528C384.916 185.41 384.987 185.241 384.972 185.02L384.969 184.982C384.935 184.501 384.767 184.139 384.464 183.896C384.161 183.652 383.741 183.549 383.205 183.586C382.64 183.626 382.2 183.781 381.886 184.05C381.576 184.32 381.375 184.626 381.284 184.97L379.107 184.815C379.236 184.208 379.481 183.691 379.845 183.264C380.207 182.833 380.665 182.497 381.216 182.258C381.767 182.015 382.385 181.869 383.069 181.821C383.541 181.788 384.015 181.81 384.49 181.888C384.965 181.966 385.405 182.119 385.81 182.347C386.214 182.571 386.549 182.891 386.813 183.308C387.081 183.725 387.238 184.259 387.284 184.91L387.742 191.465L385.523 191.62L385.429 190.274L385.352 190.28C385.231 190.561 385.051 190.83 384.813 191.086C384.578 191.338 384.275 191.549 383.902 191.72C383.534 191.887 383.095 191.988 382.584 192.024ZM383.065 190.286C383.529 190.253 383.924 190.134 384.251 189.927C384.578 189.716 384.822 189.452 384.984 189.133C385.149 188.814 385.22 188.473 385.194 188.112L385.114 186.958C385.046 187.022 384.926 187.086 384.755 187.15C384.589 187.212 384.401 187.27 384.191 187.324C383.981 187.377 383.773 187.425 383.567 187.47C383.361 187.514 383.182 187.552 383.03 187.584C382.689 187.655 382.386 187.753 382.122 187.878C381.857 188.004 381.653 188.167 381.509 188.37C381.365 188.568 381.303 188.816 381.324 189.113C381.353 189.538 381.531 189.848 381.856 190.043C382.182 190.239 382.585 190.319 383.065 190.286ZM394.269 181.166L394.394 182.951L388.763 183.345L388.638 181.56L394.269 181.166ZM389.864 179.116L392.173 178.955L392.816 188.149C392.837 188.46 392.901 188.695 393.006 188.854C393.115 189.008 393.25 189.11 393.412 189.159C393.573 189.207 393.749 189.225 393.941 189.211C394.085 189.201 394.216 189.181 394.334 189.152C394.456 189.122 394.548 189.096 394.61 189.075L395.126 190.852C395.005 190.903 394.832 190.962 394.606 191.029C394.384 191.096 394.11 191.145 393.783 191.177C393.207 191.234 392.68 191.183 392.203 191.024C391.726 190.861 391.337 190.585 391.036 190.196C390.74 189.807 390.573 189.306 390.534 188.693L389.864 179.116ZM398.49 177.59L399.403 190.649L397.095 190.811L396.181 177.752L398.49 177.59ZM401.092 180.689L403.4 180.527L404.124 190.883C404.173 191.589 404.08 192.18 403.845 192.658C403.609 193.136 403.246 193.505 402.756 193.766C402.266 194.027 401.659 194.182 400.937 194.233C400.852 194.239 400.773 194.242 400.7 194.243C400.628 194.248 400.549 194.251 400.464 194.253L400.332 192.372C400.396 192.372 400.454 192.37 400.505 192.366C400.556 192.367 400.61 192.365 400.665 192.361C401.107 192.331 401.416 192.2 401.592 191.97C401.769 191.744 401.842 191.425 401.814 191.012L401.092 180.689ZM402.142 179.219C401.772 179.244 401.447 179.145 401.167 178.922C400.89 178.693 400.74 178.407 400.716 178.062C400.691 177.714 400.8 177.409 401.043 177.149C401.289 176.884 401.597 176.738 401.967 176.713C402.333 176.687 402.654 176.788 402.93 177.017C403.211 177.241 403.363 177.527 403.388 177.876C403.412 178.22 403.3 178.525 403.054 178.79C402.812 179.05 402.508 179.193 402.142 179.219ZM406.458 190.156L405.774 180.361L408.082 180.2L408.767 189.994L406.458 190.156ZM406.837 178.89C406.471 178.916 406.148 178.817 405.868 178.593C405.587 178.365 405.435 178.078 405.41 177.734C405.386 177.386 405.497 177.081 405.744 176.82C405.99 176.555 406.296 176.41 406.662 176.384C407.032 176.358 407.355 176.46 407.631 176.688C407.912 176.912 408.064 177.198 408.089 177.547C408.113 177.891 408.002 178.196 407.755 178.461C407.513 178.721 407.207 178.864 406.837 178.89ZM419.204 179.422L416.401 189.46L413.85 189.639L409.678 180.088L412.139 179.916L414.899 187.035L415.001 187.027L416.749 179.594L419.204 179.422ZM425.439 189.021C424.482 189.088 423.639 188.935 422.908 188.563C422.177 188.192 421.592 187.641 421.152 186.911C420.716 186.181 420.463 185.31 420.392 184.299C420.322 183.287 420.451 182.387 420.78 181.6C421.114 180.812 421.617 180.183 422.289 179.713C422.961 179.243 423.775 178.975 424.732 178.908C425.688 178.841 426.532 178.993 427.262 179.365C427.993 179.737 428.577 180.29 429.012 181.024C429.452 181.758 429.708 182.631 429.779 183.642C429.849 184.654 429.718 185.552 429.384 186.336C429.054 187.119 428.553 187.746 427.881 188.216C427.209 188.685 426.395 188.954 425.439 189.021ZM425.322 187.171C425.841 187.134 426.264 186.962 426.593 186.652C426.921 186.339 427.154 185.934 427.29 185.438C427.43 184.941 427.48 184.395 427.438 183.8C427.396 183.2 427.271 182.664 427.063 182.192C426.859 181.715 426.572 181.344 426.203 181.079C425.835 180.815 425.391 180.701 424.872 180.737C424.341 180.774 423.909 180.949 423.576 181.263C423.248 181.577 423.014 181.984 422.874 182.485C422.737 182.981 422.69 183.529 422.732 184.129C422.774 184.724 422.897 185.258 423.101 185.731C423.309 186.203 423.597 186.572 423.966 186.836C424.339 187.096 424.791 187.208 425.322 187.171Z" fill="#1F2937"/>
<path d="M144.083 242.083L145.224 229.042L150.115 229.47C151.117 229.558 151.941 229.818 152.587 230.251C153.238 230.684 153.709 231.243 154 231.927C154.295 232.608 154.407 233.362 154.335 234.19C154.261 235.026 154.02 235.753 153.611 236.372C153.202 236.991 152.637 237.457 151.917 237.77C151.197 238.079 150.334 238.19 149.327 238.102L146.086 237.818L146.256 235.876L149.179 236.132C149.765 236.183 150.253 236.123 150.645 235.952C151.036 235.781 151.337 235.525 151.546 235.184C151.76 234.843 151.887 234.442 151.928 233.979C151.968 233.516 151.912 233.101 151.761 232.732C151.613 232.364 151.359 232.066 150.998 231.838C150.642 231.606 150.169 231.464 149.579 231.412L147.414 231.223L146.446 242.29L144.083 242.083ZM158.144 243.512C157.524 243.458 156.975 243.299 156.498 243.035C156.025 242.767 155.663 242.401 155.413 241.939C155.167 241.477 155.072 240.925 155.128 240.284C155.176 239.732 155.318 239.285 155.553 238.942C155.789 238.599 156.092 238.334 156.463 238.149C156.835 237.963 157.246 237.834 157.697 237.763C158.153 237.687 158.621 237.644 159.1 237.635C159.679 237.626 160.148 237.613 160.509 237.598C160.87 237.578 161.136 237.524 161.306 237.437C161.481 237.345 161.578 237.189 161.597 236.968L161.6 236.93C161.642 236.45 161.533 236.066 161.271 235.778C161.01 235.49 160.612 235.323 160.077 235.276C159.512 235.226 159.054 235.31 158.701 235.528C158.353 235.745 158.106 236.017 157.962 236.342L155.837 235.848C156.059 235.269 156.382 234.797 156.808 234.432C157.234 234.063 157.738 233.803 158.32 233.653C158.902 233.498 159.535 233.451 160.218 233.511C160.69 233.552 161.154 233.648 161.611 233.8C162.069 233.951 162.479 234.171 162.843 234.459C163.208 234.743 163.488 235.112 163.683 235.566C163.883 236.02 163.955 236.571 163.898 237.221L163.325 243.767L161.109 243.573L161.227 242.229L161.15 242.223C160.986 242.482 160.767 242.719 160.491 242.935C160.22 243.146 159.887 243.308 159.493 243.419C159.103 243.526 158.653 243.557 158.144 243.512ZM158.89 241.871C159.353 241.911 159.762 241.855 160.118 241.702C160.474 241.545 160.756 241.322 160.966 241.032C161.179 240.743 161.302 240.418 161.333 240.057L161.434 238.904C161.357 238.958 161.229 239.002 161.05 239.038C160.876 239.074 160.681 239.102 160.465 239.121C160.25 239.141 160.037 239.156 159.826 239.168C159.616 239.179 159.433 239.189 159.278 239.197C158.93 239.214 158.616 239.263 158.335 239.345C158.054 239.428 157.826 239.558 157.653 239.735C157.479 239.908 157.38 240.143 157.354 240.44C157.316 240.865 157.443 241.199 157.734 241.442C158.025 241.686 158.411 241.829 158.89 241.871ZM165.643 243.969L166.499 234.189L168.702 234.381L168.556 236.043L168.671 236.053C168.924 235.511 169.3 235.103 169.798 234.83C170.297 234.553 170.874 234.443 171.528 234.5C172.19 234.558 172.734 234.768 173.16 235.131C173.591 235.489 173.875 235.953 174.014 236.521L174.115 236.53C174.379 236.005 174.782 235.604 175.324 235.327C175.871 235.045 176.499 234.935 177.208 234.997C178.107 235.076 178.817 235.425 179.336 236.043C179.855 236.662 180.067 237.517 179.972 238.608L179.397 245.173L177.086 244.971L177.629 238.762C177.682 238.155 177.559 237.697 177.261 237.389C176.964 237.076 176.581 236.899 176.114 236.859C175.558 236.81 175.108 236.946 174.763 237.267C174.423 237.583 174.229 238.018 174.181 238.569L173.647 244.67L171.387 244.472L171.938 238.168C171.982 237.663 171.865 237.246 171.585 236.918C171.31 236.59 170.929 236.405 170.441 236.362C170.11 236.333 169.801 236.392 169.514 236.538C169.228 236.68 168.991 236.896 168.803 237.188C168.615 237.475 168.504 237.82 168.468 238.224L167.948 244.171L165.643 243.969ZM186.049 245.947C185.068 245.861 184.239 245.584 183.562 245.114C182.889 244.64 182.394 244.011 182.078 243.226C181.762 242.437 181.649 241.531 181.738 240.508C181.826 239.501 182.095 238.635 182.543 237.909C182.996 237.178 183.587 236.631 184.317 236.267C185.046 235.899 185.878 235.756 186.812 235.838C187.414 235.89 187.975 236.038 188.493 236.28C189.015 236.518 189.464 236.857 189.841 237.296C190.222 237.736 190.504 238.278 190.687 238.923C190.87 239.563 190.924 240.312 190.849 241.17L190.788 241.877L182.771 241.175L182.907 239.622L188.714 240.13C188.748 239.688 188.687 239.287 188.53 238.927C188.374 238.562 188.137 238.266 187.819 238.037C187.505 237.808 187.128 237.675 186.686 237.636C186.215 237.595 185.791 237.673 185.415 237.871C185.038 238.065 184.734 238.338 184.502 238.69C184.275 239.038 184.14 239.43 184.098 239.867L183.979 241.223C183.929 241.792 183.991 242.289 184.163 242.715C184.336 243.137 184.599 243.472 184.954 243.721C185.309 243.966 185.737 244.111 186.238 244.154C186.573 244.184 186.881 244.164 187.161 244.094C187.441 244.02 187.689 243.898 187.905 243.729C188.121 243.56 188.292 243.342 188.418 243.075L190.549 243.505C190.363 244.062 190.061 244.536 189.642 244.927C189.227 245.314 188.715 245.599 188.104 245.781C187.494 245.958 186.809 246.014 186.049 245.947ZM198.105 236.954L197.949 238.737L192.326 238.245L192.482 236.462L198.105 236.954ZM194.075 234.24L196.38 234.442L195.577 243.624C195.55 243.934 195.576 244.176 195.655 244.349C195.738 244.519 195.856 244.641 196.008 244.714C196.16 244.787 196.331 244.832 196.522 244.849C196.667 244.861 196.799 244.862 196.92 244.852C197.045 244.841 197.14 244.83 197.205 244.819L197.436 246.655C197.309 246.686 197.129 246.718 196.895 246.749C196.666 246.78 196.387 246.785 196.059 246.765C195.481 246.732 194.968 246.599 194.522 246.368C194.076 246.132 193.736 245.798 193.5 245.367C193.268 244.936 193.181 244.415 193.239 243.804L194.075 234.24ZM201.983 241.374L201.482 247.105L199.177 246.903L200.033 237.123L202.236 237.315L202.09 238.977L202.205 238.987C202.478 238.459 202.875 238.056 203.395 237.776C203.92 237.497 204.548 237.389 205.278 237.453C205.953 237.512 206.528 237.708 207.004 238.04C207.484 238.373 207.838 238.826 208.066 239.397C208.298 239.97 208.378 240.646 208.305 241.427L207.761 247.654L205.455 247.453L205.969 241.582C206.026 240.928 205.901 240.401 205.594 240.002C205.291 239.604 204.842 239.378 204.248 239.326C203.845 239.291 203.478 239.349 203.148 239.5C202.823 239.647 202.557 239.878 202.35 240.193C202.147 240.509 202.025 240.903 201.983 241.374ZM210.104 247.859L210.96 238.079L213.265 238.28L212.409 248.061L210.104 247.859ZM212.24 236.792C211.875 236.76 211.571 236.611 211.329 236.346C211.088 236.077 210.982 235.771 211.012 235.427C211.042 235.079 211.2 234.795 211.484 234.576C211.769 234.353 212.094 234.257 212.459 234.289C212.828 234.322 213.132 234.472 213.369 234.741C213.611 235.006 213.717 235.313 213.686 235.661C213.656 236.005 213.499 236.288 213.214 236.511C212.934 236.731 212.609 236.824 212.24 236.792ZM223.142 252.901C222.314 252.829 221.613 252.654 221.039 252.377C220.464 252.104 220.012 251.765 219.684 251.36C219.356 250.955 219.141 250.519 219.041 250.053L221.161 249.731C221.238 249.931 221.357 250.131 221.519 250.334C221.68 250.54 221.907 250.718 222.197 250.868C222.492 251.022 222.87 251.119 223.333 251.16C223.987 251.217 224.542 251.105 224.999 250.824C225.455 250.548 225.715 250.049 225.778 249.327L225.94 247.474L225.825 247.464C225.686 247.691 225.49 247.92 225.239 248.15C224.992 248.381 224.674 248.565 224.286 248.702C223.902 248.84 223.429 248.884 222.869 248.835C222.118 248.769 221.452 248.533 220.871 248.128C220.295 247.718 219.858 247.145 219.559 246.409C219.264 245.669 219.164 244.766 219.257 243.7C219.351 242.626 219.608 241.735 220.03 241.028C220.455 240.317 220.991 239.797 221.635 239.468C222.28 239.135 222.979 239.002 223.73 239.067C224.303 239.118 224.766 239.256 225.118 239.484C225.475 239.708 225.752 239.965 225.949 240.256C226.146 240.543 226.292 240.81 226.386 241.058L226.513 241.069L226.654 239.452L228.928 239.651L228.058 249.591C227.985 250.427 227.725 251.101 227.278 251.614C226.831 252.127 226.25 252.489 225.534 252.7C224.818 252.911 224.021 252.978 223.142 252.901ZM223.67 247.083C224.159 247.126 224.585 247.043 224.95 246.835C225.314 246.628 225.605 246.309 225.823 245.879C226.04 245.449 226.176 244.921 226.231 244.297C226.284 243.682 226.242 243.135 226.105 242.657C225.971 242.179 225.743 241.797 225.422 241.513C225.105 241.224 224.698 241.058 224.201 241.014C223.688 240.969 223.247 241.066 222.88 241.303C222.513 241.54 222.222 241.885 222.007 242.337C221.792 242.784 221.659 243.303 221.608 243.893C221.555 244.492 221.596 245.023 221.731 245.489C221.87 245.95 222.101 246.321 222.423 246.602C222.749 246.878 223.165 247.039 223.67 247.083ZM230.434 249.638L231.29 239.857L233.525 240.053L233.383 241.683L233.485 241.692C233.712 241.143 234.056 240.734 234.516 240.467C234.98 240.195 235.492 240.084 236.053 240.133C236.18 240.144 236.322 240.163 236.478 240.189C236.638 240.212 236.771 240.238 236.875 240.269L236.689 242.389C236.595 242.347 236.442 242.303 236.232 242.259C236.027 242.212 235.827 242.179 235.631 242.162C235.211 242.125 234.825 242.183 234.474 242.337C234.127 242.486 233.844 242.711 233.626 243.013C233.407 243.315 233.279 243.674 233.243 244.09L232.74 249.84L230.434 249.638ZM240.166 250.688C239.546 250.634 238.998 250.475 238.52 250.211C238.048 249.943 237.686 249.577 237.436 249.115C237.19 248.653 237.094 248.101 237.151 247.46C237.199 246.908 237.341 246.461 237.576 246.118C237.811 245.775 238.115 245.51 238.486 245.325C238.857 245.139 239.268 245.01 239.72 244.939C240.175 244.863 240.643 244.821 241.123 244.811C241.701 244.802 242.171 244.789 242.532 244.774C242.893 244.754 243.158 244.7 243.328 244.613C243.503 244.521 243.6 244.365 243.62 244.144L243.623 244.106C243.665 243.626 243.555 243.242 243.294 242.954C243.033 242.666 242.634 242.499 242.099 242.452C241.535 242.403 241.076 242.486 240.724 242.704C240.375 242.921 240.129 243.193 239.985 243.518L237.859 243.024C238.081 242.445 238.405 241.973 238.83 241.608C239.256 241.239 239.76 240.979 240.342 240.829C240.925 240.674 241.558 240.627 242.241 240.687C242.712 240.728 243.177 240.824 243.634 240.976C244.091 241.127 244.502 241.347 244.866 241.635C245.23 241.919 245.51 242.288 245.706 242.742C245.906 243.196 245.977 243.747 245.92 244.397L245.348 250.943L243.132 250.749L243.249 249.405L243.173 249.399C243.009 249.658 242.789 249.895 242.514 250.111C242.243 250.322 241.91 250.484 241.515 250.595C241.125 250.702 240.676 250.733 240.166 250.688ZM240.913 249.047C241.376 249.087 241.785 249.031 242.14 248.878C242.496 248.721 242.779 248.498 242.988 248.208C243.202 247.919 243.324 247.594 243.356 247.233L243.457 246.08C243.379 246.134 243.251 246.178 243.073 246.214C242.899 246.25 242.704 246.278 242.488 246.297C242.273 246.317 242.059 246.333 241.849 246.344C241.638 246.356 241.456 246.365 241.301 246.373C240.953 246.39 240.638 246.439 240.357 246.522C240.077 246.604 239.849 246.734 239.675 246.911C239.502 247.084 239.402 247.319 239.376 247.616C239.339 248.041 239.466 248.375 239.757 248.619C240.048 248.862 240.433 249.005 240.913 249.047ZM251.28 251.635C250.512 251.568 249.841 251.31 249.269 250.862C248.696 250.414 248.267 249.799 247.98 249.017C247.693 248.235 247.597 247.307 247.691 246.233C247.786 245.146 248.045 244.245 248.467 243.529C248.893 242.809 249.429 242.285 250.074 241.956C250.719 241.623 251.417 241.49 252.168 241.555C252.741 241.606 253.204 241.744 253.556 241.972C253.909 242.195 254.182 242.452 254.374 242.743C254.567 243.029 254.713 243.297 254.811 243.545L254.907 243.553L255.333 238.675L257.645 238.878L256.504 251.919L254.237 251.72L254.372 250.179L254.232 250.167C254.092 250.395 253.898 250.632 253.65 250.88C253.402 251.123 253.085 251.322 252.699 251.477C252.313 251.631 251.84 251.684 251.28 251.635ZM252.089 249.8C252.577 249.843 253.004 249.748 253.371 249.514C253.739 249.277 254.032 248.928 254.252 248.469C254.472 248.009 254.61 247.463 254.665 246.83C254.72 246.198 254.679 245.64 254.542 245.157C254.409 244.675 254.181 244.29 253.86 244.001C253.543 243.712 253.136 243.546 252.64 243.502C252.126 243.457 251.686 243.554 251.318 243.791C250.951 244.028 250.66 244.375 250.444 244.831C250.229 245.287 250.095 245.819 250.042 246.426C249.988 247.037 250.028 247.59 250.16 248.085C250.296 248.576 250.525 248.975 250.844 249.281C251.169 249.583 251.584 249.756 252.089 249.8ZM263.21 252.698C262.255 252.614 261.445 252.332 260.782 251.85C260.118 251.369 259.626 250.733 259.306 249.944C258.99 249.155 258.876 248.255 258.965 247.245C259.053 246.234 259.321 245.366 259.77 244.64C260.223 243.913 260.818 243.371 261.555 243.012C262.292 242.653 263.138 242.515 264.093 242.599C265.049 242.682 265.858 242.965 266.522 243.446C267.185 243.928 267.675 244.565 267.991 245.359C268.31 246.152 268.426 247.054 268.338 248.065C268.249 249.075 267.979 249.941 267.527 250.663C267.078 251.385 266.486 251.926 265.748 252.285C265.011 252.644 264.165 252.782 263.21 252.698ZM263.384 250.852C263.902 250.898 264.348 250.793 264.721 250.539C265.094 250.281 265.387 249.918 265.599 249.449C265.815 248.98 265.949 248.448 266.001 247.854C266.054 247.255 266.014 246.707 265.882 246.207C265.755 245.704 265.53 245.293 265.207 244.974C264.885 244.655 264.464 244.473 263.946 244.427C263.416 244.381 262.962 244.487 262.584 244.745C262.211 245.003 261.916 245.368 261.699 245.841C261.487 246.31 261.354 246.844 261.302 247.443C261.25 248.037 261.288 248.584 261.415 249.083C261.547 249.582 261.774 249.991 262.097 250.31C262.425 250.625 262.854 250.806 263.384 250.852ZM279.129 244.043L274.79 253.519L272.243 253.296L269.616 243.21L272.074 243.425L273.686 250.888L273.788 250.896L276.678 243.828L279.129 244.043ZM279.869 253.963L280.724 244.182L283.03 244.384L282.174 254.165L279.869 253.963ZM282.005 242.895C281.64 242.863 281.336 242.715 281.094 242.45C280.852 242.181 280.747 241.874 280.777 241.53C280.807 241.182 280.965 240.899 281.249 240.68C281.534 240.457 281.859 240.361 282.224 240.393C282.593 240.425 282.896 240.576 283.134 240.845C283.376 241.11 283.482 241.416 283.451 241.764C283.421 242.108 283.264 242.392 282.979 242.615C282.699 242.834 282.374 242.928 282.005 242.895Z" fill="#1F2937"/>
</g>
<defs>
<filter id="filter0_d_6_10" x="99.0198" y="6.17909" width="341.96" height="187.642" filterUnits="userSpaceOnUse" color-interpolation-filters="sRGB">
<feFlood flood-opacity="0" result="BackgroundImageFix"/>
<feColorMatrix in="SourceAlpha" type="matrix" values="0 0 0 0 0 0 0 0 0 0 0 0 0 0 0 0 0 0 127 0" result="hardAlpha"/>
<feMorphology radius="10" operator="dilate" in="SourceAlpha" result="effect1_dropShadow_6_10"/>
<feOffset dy="10"/>
<feGaussianBlur stdDeviation="15"/>
<feComposite in2="hardAlpha" operator="out"/>
<feColorMatrix type="matrix" values="0 0 0 0 0 0 0 0 0 0 0 0 0 0 0 0 0 0 0.1 0"/>
<feBlend mode="normal" in2="BackgroundImageFix" result="effect1_dropShadow_6_10"/>
<feBlend mode="normal" in="SourceGraphic" in2="effect1_dropShadow_6_10" result="shape"/>
</filter>
<filter id="filter1_d_6_10" x="172.038" y="103.539" width="343.651" height="195.202" filterUnits="userSpaceOnUse" color-interpolation-filters="sRGB">
<feFlood flood-opacity="0" result="BackgroundImageFix"/>
<feColorMatrix in="SourceAlpha" type="matrix" values="0 0 0 0 0 0 0 0 0 0 0 0 0 0 0 0 0 0 127 0" result="hardAlpha"/>
<feMorphology radius="10" operator="dilate" in="SourceAlpha" result="effect1_dropShadow_6_10"/>
<feOffset dy="10"/>
<feGaussianBlur stdDeviation="15"/>
<feComposite in2="hardAlpha" operator="out"/>
<feColorMatrix type="matrix" values="0 0 0 0 0 0 0 0 0 0 0 0 0 0 0 0 0 0 0.1 0"/>
<feBlend mode="normal" in2="BackgroundImageFix" result="effect1_dropShadow_6_10"/>
<feBlend mode="normal" in="SourceGraphic" in2="effect1_dropShadow_6_10" result="shape"/>
</filter>
<filter id="filter2_d_6_10" x="42.0375" y="153.539" width="343.651" height="195.202" filterUnits="userSpaceOnUse" color-interpolation-filters="sRGB">
<feFlood flood-opacity="0" result="BackgroundImageFix"/>
<feColorMatrix in="SourceAlpha" type="matrix" values="0 0 0 0 0 0 0 0 0 0 0 0 0 0 0 0 0 0 127 0" result="hardAlpha"/>
<feMorphology radius="10" operator="dilate" in="SourceAlpha" result="effect1_dropShadow_6_10"/>
<feOffset dy="10"/>
<feGaussianBlur stdDeviation="15"/>
<feComposite in2="hardAlpha" operator="out"/>
<feColorMatrix type="matrix" values="0 0 0 0 0 0 0 0 0 0 0 0 0 0 0 0 0 0 0.1 0"/>
<feBlend mode="normal" in2="BackgroundImageFix" result="effect1_dropShadow_6_10"/>
<feBlend mode="normal" in="SourceGraphic" in2="effect1_dropShadow_6_10" result="shape"/>
</filter>
<clipPath id="clip0_6_10">
<rect width="480" height="320" fill="white"/>
</clipPath>
</defs>
</svg>
